<svg width="32" height="32" viewBox="0 0 32 32" fill="none" xmlns="http://www.w3.org/2000/svg">
<path d="M16.0002 1.33334C7.90016 1.33334 1.3335 7.89968 1.3335 16C1.3335 24.1003 7.90016 30.6667 16.0002 30.6667C24.1002 30.6667 30.6668 24.1003 30.6668 16C30.6668 7.89968 24.1002 1.33334 16.0002 1.33334ZM16.0002 28C9.37283 28 4.00016 22.6273 4.00016 16C4.00016 9.37268 9.37283 4.00001 16.0002 4.00001C22.6275 4.00001 28.0002 9.37268 28.0002 16C28.0002 22.6273 22.6275 28 16.0002 28Z" fill="#C71A1A"/>
<path fill-rule="evenodd" clip-rule="evenodd" d="M20.9705 13.5607C21.5563 12.9749 21.5563 12.0251 20.9705 11.4393C20.3847 10.8536 19.435 10.8536 18.8492 11.4393L16.2049 14.0836L13.5607 11.4393C12.9749 10.8536 12.0252 10.8536 11.4394 11.4393C10.8536 12.0251 10.8536 12.9749 11.4394 13.5607L14.0836 16.2049L11.4393 18.8492C10.8536 19.435 10.8536 20.3847 11.4393 20.9705C12.0251 21.5563 12.9749 21.5563 13.5607 20.9705L16.2049 18.3262L18.8492 20.9705C19.435 21.5563 20.3847 21.5563 20.9705 20.9705C21.5563 20.3847 21.5563 19.435 20.9705 18.8492L18.3263 16.2049L20.9705 13.5607Z" fill="#C71A1A"/>
</svg>
