<svg width="211" height="54" viewBox="0 0 211 54" fill="none" xmlns="http://www.w3.org/2000/svg">
<g clip-path="url(#clip0_174_2421)">
<path d="M137.969 19.4127C135.203 17.9089 132.091 17.157 128.702 17.157C125.314 17.157 122.202 17.9089 119.435 19.4127C116.669 20.9165 114.525 23.0354 112.934 25.7013C111.344 28.3671 110.583 31.3063 110.583 34.5873C110.583 37.8684 111.344 40.8076 112.934 43.4734C114.525 46.1392 116.669 48.2582 119.435 49.762C122.202 51.2658 125.314 52.0177 128.702 52.0177C132.091 52.0177 135.203 51.2658 137.969 49.762C140.736 48.2582 142.88 46.1392 144.47 43.5418C146.061 40.9443 146.822 37.8684 146.822 34.5873C146.822 31.3063 146.061 28.2987 144.47 25.6329C142.88 23.0354 140.667 20.9165 137.969 19.4127ZM141.842 42.1063C140.528 44.362 138.73 46.1392 136.448 47.3696C134.166 48.6684 131.607 49.2835 128.772 49.2835C125.936 49.2835 123.377 48.6684 121.026 47.3696C118.744 46.0709 116.876 44.362 115.562 42.1063C114.248 39.8506 113.557 37.3215 113.557 34.5873C113.557 31.8532 114.248 29.3241 115.562 27.0684C116.876 24.8127 118.675 23.0354 121.026 21.8051C123.308 20.5063 125.936 19.8911 128.772 19.8911C131.607 19.8911 134.166 20.5063 136.448 21.8051C138.73 23.1038 140.528 24.8127 141.842 27.0684C143.156 29.3241 143.848 31.8532 143.848 34.5873C143.779 37.3215 143.156 39.8506 141.842 42.1063Z" fill="white"/>
<path d="M103.045 35.9544C104.428 34.1089 105.189 31.7848 105.189 29.0506C105.189 25.4278 103.944 22.4886 101.454 20.438C98.9646 18.3873 95.5067 17.362 91.1498 17.362H78.6322L76.8342 18.4557C74.8977 19.5494 73.238 20.2329 71.509 20.2329C71.3015 20.2329 71.0249 20.2329 70.7483 20.1646C70.195 20.0278 69.5726 19.8228 68.881 19.481C68.1894 19.1392 67.567 18.7291 66.8063 18.2506C66.1147 17.7722 65.4231 17.2937 64.6624 16.8835C63.7634 16.4051 62.9335 16.0633 62.1036 15.9266C61.2045 15.7215 60.2363 15.7215 59.3373 15.9266C58.7149 16.0633 58.1616 16.2684 57.5392 16.5418C57.4009 13.6025 56.6401 10.8684 55.1878 8.47595C53.5972 5.81013 51.4533 3.75949 48.687 2.2557C45.9898 0.751899 42.8777 0 39.489 0C36.1003 0 32.9882 0.751899 30.2219 2.2557C27.4556 3.75949 25.3117 5.87848 23.7211 8.5443C22.2688 11.0051 21.508 13.7392 21.3697 16.7468C20.609 16.3367 19.8482 16.0633 19.1567 15.9266C18.2576 15.7215 17.2894 15.7215 16.3904 15.9266C15.5605 16.0633 14.7306 16.4051 13.8315 16.8835C13.0708 17.2937 12.3792 17.7722 11.6185 18.2506C10.9269 18.7291 10.3045 19.1392 9.61291 19.481C8.92134 19.8228 8.29892 20.0962 7.74566 20.1646C7.46903 20.2329 7.26155 20.2329 6.98492 20.2329C5.25598 20.2329 3.5962 19.5494 1.65978 18.4557L0 17.4987V20.5063L0.622419 20.8481C2.55883 21.9418 4.70272 22.8987 7.12324 22.8987C7.60734 22.8987 8.02229 22.8304 8.50639 22.762C9.33628 22.6253 10.1662 22.2835 11.0652 21.8051C11.826 21.3949 12.5175 20.9165 13.2783 20.438C13.9698 19.9595 14.5923 19.5494 15.2838 19.2076C15.9754 18.8658 16.5978 18.5924 17.1511 18.524C17.6352 18.4557 18.1193 18.4557 18.6034 18.524C19.1567 18.6608 19.7791 18.8658 20.4707 19.2076C20.8165 19.4127 21.2314 19.6177 21.5772 19.8228C21.8538 20.0278 22.1996 20.2329 22.5454 20.438C23.237 20.9165 23.9285 21.3266 24.6893 21.7367C24.8276 21.8051 24.9659 21.8734 25.0351 21.9418C25.7958 22.3519 26.4874 22.557 27.179 22.6937C28.078 22.8987 29.0462 22.8987 29.9453 22.6937C30.7752 22.557 31.605 22.2152 32.5041 21.7367C33.2648 21.3266 33.9564 20.8481 34.648 20.438L34.7171 20.3696C35.4087 19.9595 36.0311 19.481 36.7227 19.1392C37.4143 18.7975 38.0367 18.524 38.59 18.4557C39.0741 18.3873 39.5582 18.3873 40.0423 18.4557C40.5955 18.5924 41.218 18.7975 41.9095 19.1392C42.6011 19.481 43.2235 19.8911 43.9843 20.3696C44.6758 20.8481 45.3674 21.2582 46.1282 21.6684C47.0272 22.1468 47.8571 22.4886 48.687 22.6253C49.586 22.8304 50.5542 22.8304 51.4533 22.6253C52.2832 22.4886 53.0439 22.1468 53.943 21.6684C54.7037 21.2582 55.3953 20.7797 56.156 20.3013C56.571 20.0278 57.0551 19.7544 57.47 19.481C57.6775 19.3443 57.9541 19.2076 58.1616 19.0709C58.8532 18.7291 59.4756 18.4557 60.0288 18.3873C60.513 18.319 60.9971 18.319 61.4812 18.3873C62.0344 18.524 62.6568 18.7291 63.3484 19.0709C64.04 19.4127 64.6624 19.8228 65.4231 20.3696C66.1147 20.8481 66.8063 21.2582 67.567 21.6684C68.4661 22.1468 69.296 22.4886 70.1259 22.6253C70.61 22.6937 71.0249 22.762 71.509 22.762C73.9295 22.762 76.0734 21.8051 78.0098 20.7114L78.6322 20.3696V27.7519L76.8342 28.7772C74.8977 29.8709 73.238 30.5544 71.509 30.5544C71.3015 30.5544 71.0249 30.5544 70.7483 30.4861C70.195 30.3494 69.5726 30.1443 68.881 29.8025C68.1894 29.4608 67.567 29.0506 66.8063 28.5722C66.1147 28.0937 65.4231 27.6152 64.6624 27.2051C63.7634 26.7266 62.9335 26.3848 62.1036 26.2481C61.2045 26.043 60.2363 26.043 59.3373 26.2481C58.5074 26.3848 57.6775 26.7266 56.7784 27.2051C56.0177 27.6152 55.3261 28.0937 54.5654 28.5722C53.8738 29.0506 53.2514 29.4608 52.5598 29.8025C52.4215 29.8709 52.2832 29.9392 52.1449 30.0076C51.6608 30.281 51.1767 30.4177 50.6926 30.4861C50.2085 30.5544 49.7243 30.5544 49.2402 30.4861C48.7561 30.4177 48.1337 30.1443 47.5113 29.8709C47.4422 29.8709 47.4422 29.8025 47.373 29.8025C46.6814 29.4608 46.059 29.0506 45.2983 28.5722C44.6067 28.0937 43.9151 27.6835 43.1544 27.2734C42.2553 26.7949 41.4254 26.4532 40.5955 26.3165C39.6965 26.1114 38.7283 26.1114 37.8292 26.3165C36.9993 26.4532 36.1695 26.7949 35.2704 27.2734C34.5097 27.6835 33.8181 28.162 33.1265 28.5722V28.7089C32.4349 29.119 31.8125 29.5291 31.1901 29.9392C30.4985 30.281 29.8761 30.5544 29.3228 30.6228C28.8387 30.6911 28.3546 30.6911 27.8705 30.6228C27.6631 30.5544 27.3864 30.4861 27.179 30.4177C26.8332 30.281 26.4182 30.1443 26.0033 29.8709C25.3117 29.5291 24.6893 29.119 23.9285 28.6405C23.237 28.162 22.5454 27.7519 21.7847 27.3418C20.8856 26.8633 20.0557 26.5215 19.2258 26.3848C18.3268 26.1797 17.3586 26.1797 16.4595 26.3848C15.6296 26.5215 14.7997 26.8633 13.9007 27.3418C13.14 27.7519 12.4484 28.2304 11.6876 28.7089C10.9961 29.1873 10.3736 29.5975 9.68207 29.9392C8.99049 30.281 8.36808 30.5544 7.81482 30.6228C7.53818 30.6911 7.33071 30.6911 7.05408 30.6911C5.32514 30.6911 3.66536 30.0076 1.72894 28.9139L0 27.8886V30.8962L0.622419 31.238C2.55883 32.3316 4.70272 33.2886 7.12324 33.2886C7.60734 33.2886 8.02229 33.2203 8.50639 33.1519C9.33628 33.0152 10.097 32.6734 11.0652 32.1949C11.826 31.7848 12.5175 31.3063 13.2783 30.8278C13.9698 30.3494 14.5923 29.9392 15.2838 29.5975C15.9754 29.2557 16.5978 28.9823 17.1511 28.9139C17.6352 28.8456 18.1193 28.8456 18.6034 28.9139C19.1567 29.0506 19.7791 29.2557 20.4707 29.5975C21.1622 29.9392 21.7847 30.3494 22.5454 30.8278C23.237 31.3063 23.9285 31.7165 24.6893 32.1266C25.5883 32.6051 26.4182 32.9468 27.2481 33.0835C28.1472 33.2886 29.1154 33.2886 30.0144 33.0835C30.2911 33.0152 30.6368 32.9468 30.9135 32.8101C31.4667 32.6051 31.9508 32.4 32.5733 32.1266C33.1265 31.8532 33.6106 31.5114 34.1639 31.1696C34.3714 31.0329 34.5788 30.8962 34.7171 30.8278L34.7863 30.7595C35.4779 30.3494 36.1003 29.8709 36.7919 29.5291C37.4834 29.1873 38.1059 28.9139 38.6591 28.8456C39.1432 28.7772 39.6273 28.7772 40.1114 28.8456C40.6647 28.9823 41.2871 29.1873 41.9787 29.5291C42.6703 29.8709 43.2927 30.281 44.0534 30.7595C44.2609 30.8962 44.5375 31.0329 44.745 31.238C45.2291 31.5114 45.7132 31.8532 46.1973 32.1266C46.8889 32.4684 47.4422 32.7418 48.0646 32.9468C48.272 33.0152 48.4795 33.0835 48.7561 33.1519C49.6552 33.357 50.6234 33.357 51.5225 33.1519C52.3523 33.0152 53.1822 32.6734 54.0813 32.1949C54.842 31.7848 55.5336 31.3063 56.2943 30.8278C56.9859 30.3494 57.6083 29.9392 58.2999 29.5975C58.9915 29.2557 59.6139 28.9823 60.1672 28.9139C60.6513 28.8456 61.1354 28.8456 61.6195 28.9139C62.1727 29.0506 62.7952 29.2557 63.4867 29.5975C64.1783 29.9392 64.8007 30.3494 65.5615 30.8962C66.253 31.3747 66.9446 31.7848 67.7053 32.1949C68.6044 32.6734 69.4343 33.0152 70.2642 33.1519C70.7483 33.2203 71.1632 33.2886 71.6473 33.2886C74.0678 33.2886 76.2117 32.3316 78.1481 31.238L78.7706 30.8962V38.2785L76.9725 39.2354C75.0361 40.3291 73.3763 41.0127 71.6473 41.0127C71.4399 41.0127 71.1632 41.0127 70.8866 40.9443C70.3333 40.8076 69.7109 40.6025 69.0193 40.2608C68.3278 39.919 67.7053 39.5089 67.0829 39.0304L66.8063 38.962C66.1147 38.4835 65.4231 38.0051 64.6624 37.5949C63.7634 37.1165 62.9335 36.7747 62.1036 36.638C61.2045 36.4329 60.2363 36.4329 59.3373 36.638C58.5074 36.7747 57.7466 37.1165 56.7784 37.5949C56.0177 38.0051 55.3261 38.4835 54.6345 38.962C54.6345 38.962 54.5654 38.962 54.5654 39.0304C53.8738 39.4405 53.2514 39.8506 52.629 40.2608C51.9374 40.6025 51.315 40.8759 50.7617 40.9443C50.2776 41.0127 49.7935 41.0127 49.3094 40.9443C48.7561 40.8076 48.1337 40.6025 47.4422 40.2608C46.7506 39.919 46.1282 39.5089 45.5057 39.0304L45.4366 38.962C44.745 38.4835 44.0534 38.0734 43.2927 37.6633C42.3936 37.1848 41.5638 36.843 40.7339 36.7063C39.8348 36.5013 38.8666 36.5013 37.9676 36.7063C37.1377 36.843 36.3078 37.1848 35.4087 37.6633C34.648 38.0734 33.9564 38.5519 33.1957 39.0304L33.1265 39.0987C32.4349 39.5089 31.8125 39.919 31.1901 40.3291C30.4985 40.6709 29.8761 40.9443 29.3228 41.0127C28.8387 41.081 28.3546 41.081 27.8705 41.0127C27.3173 40.8759 26.6949 40.6709 26.0033 40.3291C25.3117 39.9873 24.6893 39.5772 24.0669 39.0987L23.9977 39.0304C23.3061 38.5519 22.6146 38.1418 21.8538 37.7316C20.9548 37.2532 20.1249 36.9114 19.295 36.7747C18.3959 36.5696 17.4277 36.5696 16.5287 36.7747C15.6988 36.9114 14.9381 37.2532 13.9698 37.7316C13.14 38.0734 12.4484 38.5519 11.7568 38.962L11.6876 39.0304C10.9961 39.4405 10.3736 39.919 9.68207 40.2608C8.99049 40.6025 8.36808 40.8759 7.81482 40.9443C7.60734 41.0127 7.33071 41.0127 7.12324 41.0127C5.3943 41.0127 3.73451 40.3291 1.7981 39.2354L0 38.2785V41.2861L0.622419 41.6278C2.55883 42.7215 4.70272 43.6785 7.12324 43.6785C7.60734 43.6785 8.02229 43.6101 8.50639 43.5418C9.33628 43.4051 10.097 43.0633 11.0652 42.5848C11.7568 42.1063 12.4484 41.6962 13.14 41.2177L13.2091 41.1494C13.9007 40.7392 14.5231 40.2608 15.2147 39.919C15.9063 39.5772 16.5287 39.3038 17.0819 39.2354C17.566 39.1671 18.0501 39.1671 18.5343 39.2354C19.0875 39.3722 19.7099 39.5772 20.4015 39.919C21.0931 40.2608 21.7155 40.6709 22.4071 41.1494L22.4762 41.2177C23.1678 41.6962 23.8594 42.1063 24.6201 42.5165C25.5192 42.9949 26.3491 43.3367 27.179 43.4734C28.078 43.6785 29.0462 43.6785 29.9453 43.4734C30.7752 43.3367 31.5359 42.9949 32.5041 42.5165C33.2648 42.1063 33.9564 41.6278 34.648 41.2177L34.7863 41.1494C35.4779 40.7392 36.1003 40.2608 36.7919 39.919C37.4834 39.5772 38.1059 39.3038 38.6591 39.2354C39.1432 39.1671 39.6273 39.1671 40.1114 39.2354C40.6647 39.3722 41.2871 39.5772 41.9787 39.919C42.6703 40.2608 43.2927 40.6709 43.9843 41.1494L44.0534 41.2177C44.745 41.6962 45.4366 42.1063 46.1973 42.5165C47.0964 42.9949 47.9263 43.3367 48.7561 43.4734C49.6552 43.6785 50.6234 43.6785 51.5225 43.4734C52.3523 43.3367 53.1131 42.9949 54.0813 42.5165C54.842 42.1063 55.5336 41.6278 56.2252 41.2177L56.2943 41.1494C56.9859 40.6709 57.6083 40.2608 58.2999 39.919C58.9915 39.5772 59.6139 39.3038 60.1672 39.2354C60.6513 39.1671 61.1354 39.1671 61.6195 39.2354C62.1727 39.3722 62.7952 39.5772 63.4867 39.919C64.1783 40.2608 64.8007 40.6709 65.4923 41.1494L65.5615 41.2177C66.253 41.6962 66.9446 42.1063 67.7053 42.5165C68.6044 42.9949 69.4343 43.3367 70.2642 43.4734C70.7483 43.5418 71.1632 43.6101 71.6473 43.6101C74.0678 43.6101 76.2117 42.6532 78.1481 41.5595L78.7706 41.2861V48.6L76.9725 49.557C75.0361 50.6506 73.3763 51.3342 71.6473 51.3342C71.4399 51.3342 71.1632 51.3342 70.8866 51.2658C70.3333 51.1291 69.7109 50.924 69.0193 50.5823C68.3278 50.2405 67.7053 49.8304 67.0138 49.3519L66.9446 49.2835C66.253 48.8051 65.5615 48.3949 64.8007 47.9848C63.9017 47.5063 63.0718 47.1646 62.2419 47.0278C61.3428 46.8228 60.3746 46.8228 59.4756 47.0278C58.6457 47.1646 57.885 47.5063 56.9168 47.9848C56.156 48.3949 55.4644 48.8734 54.7729 49.2835L54.6345 49.3519C53.943 49.8304 53.3205 50.2405 52.629 50.5823C51.9374 50.924 51.315 51.1975 50.7617 51.2658C50.2776 51.3342 49.7935 51.3342 49.3094 51.2658C48.7561 51.1291 48.1337 50.924 47.4422 50.5823C46.7506 50.2405 46.1282 49.8304 45.4366 49.3519L45.3674 49.2835C44.6758 48.8734 43.9843 48.3949 43.2235 47.9848C42.3245 47.5063 41.4946 47.1646 40.6647 47.0278C39.7657 46.8228 38.7974 46.8228 37.8984 47.0278C37.0685 47.1646 36.3078 47.5063 35.3396 47.9848C34.5788 48.3949 33.8872 48.8734 33.1957 49.2835L33.0574 49.3519C32.3658 49.762 31.7434 50.2405 31.0518 50.5823C30.3602 50.924 29.7378 51.1975 29.1845 51.2658C28.7004 51.3342 28.2163 51.3342 27.7322 51.2658C27.179 51.1291 26.5565 50.924 25.865 50.5823C25.1734 50.2405 24.551 49.8304 23.7902 49.3519C23.0987 48.8734 22.4071 48.4633 21.6463 48.0532C20.7473 47.5747 19.9174 47.2329 19.0875 47.0962C18.1885 46.8911 17.2203 46.8911 16.3212 47.0962C15.4913 47.2329 14.7306 47.5747 13.7624 48.0532C13.0016 48.4633 12.3101 48.9418 11.6185 49.3519L11.5493 49.4203C10.8578 49.8987 10.2353 50.3089 9.54376 50.6506C8.85218 50.9924 8.22976 51.2658 7.6765 51.3342C7.39987 51.4025 7.1924 51.4025 6.91577 51.4025C5.18682 51.4025 3.52704 50.719 1.59063 49.6253L0 48.6V51.6076L0.622419 51.9494C2.55883 53.043 4.70272 54 7.12324 54C7.60734 54 8.02229 53.9316 8.50639 53.8633C9.33628 53.7266 10.1662 53.3848 11.0652 52.9063C11.826 52.4962 12.5175 52.0177 13.2091 51.5392L13.0016 51.2658H13.0708L13.2783 51.5392C13.9698 51.1291 14.5923 50.719 15.2147 50.3089C15.9063 49.9671 16.5287 49.6937 17.0819 49.6253C17.566 49.557 18.0501 49.557 18.5343 49.6253C19.0875 49.762 19.7099 49.9671 20.4015 50.3089C21.0931 50.6506 21.7155 51.0608 22.3379 51.5392L22.5454 51.2658C22.5454 51.2658 22.6146 51.2658 22.6146 51.3342L22.4762 51.6076C23.1678 52.0861 23.8594 52.4962 24.6201 52.9063C25.5192 53.3848 26.3491 53.7266 27.179 53.8633C28.078 54.0684 29.0462 54.0684 29.9453 53.8633C30.7752 53.7266 31.605 53.3848 32.5041 52.9063C33.2648 52.4962 33.9564 52.0177 34.7171 51.5392L34.7863 51.4709C35.4779 51.0608 36.1003 50.6506 36.7227 50.2405C37.4143 49.8987 38.0367 49.6253 38.59 49.557C39.0741 49.4886 39.5582 49.4886 40.0423 49.557C40.5955 49.6937 41.218 49.8987 41.9095 50.2405C42.6011 50.5823 43.2235 50.9924 43.846 51.4709L43.9151 51.5392C44.6067 52.0177 45.2983 52.4278 46.059 52.838C46.958 53.3165 47.7879 53.6582 48.6178 53.7949C49.5169 54 50.4851 54 51.3841 53.7949C52.214 53.6582 52.9748 53.3165 53.943 52.838C54.7037 52.4278 55.3953 51.9494 56.0869 51.5392L56.156 51.4709C56.8476 51.0608 57.47 50.5823 58.1616 50.2405C58.8532 49.8987 59.4756 49.6253 60.0288 49.557C60.513 49.4886 60.9971 49.4886 61.4812 49.557C62.0344 49.6937 62.6568 49.8987 63.3484 50.2405C64.04 50.5823 64.6624 50.9924 65.354 51.4709L65.4231 51.5392C66.1147 52.0177 66.8063 52.4278 67.567 52.838C68.4661 53.3165 69.296 53.6582 70.1259 53.7949C70.61 53.8633 71.0249 53.9316 71.509 53.9316C73.9295 53.9316 76.6958 52.838 78.6322 51.7443H81.606V40.6709H91.2189C92.1871 40.6709 93.2937 40.6025 94.4694 40.4658L102.63 51.8127H106.019L97.374 39.8506C99.7945 39.0304 101.731 37.7316 103.045 35.9544ZM52.629 19.481C51.9374 19.8228 51.315 20.0962 50.7617 20.1646C50.2776 20.2329 49.7935 20.2329 49.3094 20.1646C48.7561 20.0278 48.1337 19.8228 47.4422 19.481C46.7506 19.1392 46.1282 18.7291 45.3674 18.2506C44.6758 17.7722 43.9843 17.362 43.2235 16.9519C42.3245 16.4734 41.4946 16.1316 40.6647 15.9949C39.7657 15.7899 38.7974 15.7899 37.8984 15.9949C37.0685 16.1316 36.2386 16.4734 35.3396 16.9519C34.648 17.2937 33.8872 17.7722 33.1957 18.2506L33.1265 18.319C32.4349 18.7291 31.8125 19.2076 31.1209 19.5494C30.4294 19.8911 29.8069 20.1646 29.2537 20.2329C28.7696 20.3013 28.2855 20.3013 27.8014 20.2329C27.2481 20.0962 26.6257 19.8911 25.9341 19.5494C25.3809 19.2759 24.8968 18.9342 24.3435 18.5924C24.3435 18.2506 24.2743 17.8405 24.2743 17.4987C24.2743 14.7646 24.9659 12.2354 26.2799 9.97975C27.5939 7.72405 29.392 5.94684 31.7434 4.71646C34.0256 3.41772 36.6536 2.73418 39.489 2.73418C42.3245 2.73418 44.8833 3.34937 47.1655 4.6481C49.4477 5.94684 51.2458 7.6557 52.5598 9.91139C53.8738 12.1671 54.5654 14.6962 54.5654 17.4304C54.5654 17.7038 54.5654 18.0456 54.5654 18.319C53.8738 18.7975 53.2514 19.1392 52.629 19.481ZM91.1498 38.0734H81.5369V20.0962H91.1498C94.746 20.0962 97.5123 20.9165 99.3795 22.4203C101.247 23.9924 102.215 26.1797 102.215 29.0506C102.215 31.9215 101.247 34.1089 99.3795 35.681C97.5123 37.2532 94.746 38.0734 91.1498 38.0734Z" fill="white"/>
<path d="M167.5 17.362H164.664L148.689 51.8127H151.87L156.227 42.243H175.868L180.294 51.8127H183.475L167.5 17.5671V17.362ZM157.472 39.7139L166.117 20.9165L174.761 39.7139H157.472Z" fill="white"/>
<path d="M209.34 37.9367C208.234 36.7063 206.92 35.8177 205.398 35.2025C203.877 34.5873 201.871 34.0405 199.312 33.4253C197.099 32.8785 195.301 32.3316 193.987 31.8532C192.742 31.3747 191.636 30.6911 190.806 29.8025C189.976 28.9139 189.561 27.7519 189.561 26.3165C189.561 24.4025 190.391 22.8304 191.912 21.6C193.503 20.3696 195.854 19.7544 198.967 19.7544C200.557 19.7544 202.148 20.0279 203.808 20.5063C205.398 20.9848 206.92 21.6684 208.303 22.6253L208.51 22.762L209.617 20.3696L209.479 20.2329C208.095 19.276 206.505 18.5241 204.637 17.9772C202.77 17.4304 200.903 17.157 198.967 17.157C196.2 17.157 193.918 17.5671 192.051 18.3873C190.184 19.2076 188.8 20.3696 187.901 21.7367C187.002 23.1722 186.518 24.676 186.518 26.3848C186.518 28.5038 187.071 30.1443 188.178 31.443C189.284 32.6734 190.598 33.6304 192.12 34.1772C193.641 34.7924 195.716 35.3392 198.206 35.9544C200.419 36.5013 202.217 36.9798 203.462 37.4582C204.707 37.9367 205.813 38.6203 206.643 39.5089C207.473 40.3975 207.888 41.5595 207.888 42.9949C207.888 44.9089 207.058 46.4127 205.467 47.643C203.877 48.8051 201.387 49.4203 198.206 49.4203C195.993 49.4203 193.849 49.0101 191.843 48.2582C189.838 47.5063 188.247 46.481 187.071 45.2506L186.864 45.0456L185.481 47.3013L185.619 47.438C186.933 48.8051 188.731 49.9671 191.013 50.7874C193.296 51.676 195.716 52.0861 198.275 52.0861C201.041 52.0861 203.323 51.676 205.26 50.8557C207.127 50.0354 208.579 48.9418 209.479 47.5063C210.378 46.1392 210.862 44.5671 210.862 42.8582C211 40.8076 210.447 39.0987 209.34 37.9367Z" fill="white"/>
</g>
<defs>
<clipPath id="clip0_174_2421">
<rect width="211" height="54" fill="white"/>
</clipPath>
</defs>
</svg>
