<svg width="226" height="226" viewBox="0 0 226 226" fill="none" xmlns="http://www.w3.org/2000/svg">
<g filter="url(#filter0_bd_354_3811)">
<rect x="23" y="19" width="180" height="180" rx="20" fill="url(#paint0_linear_354_3811)" shape-rendering="crispEdges"/>
<rect x="23.5" y="19.5" width="179" height="179" rx="19.5" stroke="url(#paint1_linear_354_3811)" shape-rendering="crispEdges"/>
</g>
<path d="M92.6384 105.59C91.2457 104.197 88.9826 104.197 87.5899 105.59C86.1972 106.983 86.1972 109.246 87.5899 110.639L104.041 127.09C104.737 127.786 105.608 128.134 106.565 128.134C106.652 128.134 106.652 128.134 106.739 128.134C107.697 128.047 108.654 127.612 109.351 126.829L150.522 77.4752C151.741 75.9954 151.567 73.7323 150.087 72.4267C148.607 71.2081 146.344 71.3821 145.038 72.8619L106.304 119.256L92.6384 105.59Z" fill="black" style="mix-blend-mode:overlay"/>
<path d="M140.164 65.7244C120.144 53.1901 94.4661 56.1496 77.7538 72.8619C58.0821 92.5336 58.0821 124.653 77.7538 144.324C87.5897 154.16 100.559 159.122 113.442 159.122C126.324 159.122 139.293 154.16 149.129 144.324C165.929 127.525 168.801 101.76 156.18 81.7403C155.135 80.0865 152.959 79.5642 151.305 80.6087C149.651 81.6533 149.129 83.8293 150.174 85.4832C161.054 102.718 158.53 124.827 144.081 139.276C127.194 156.162 99.6017 156.162 82.7153 139.276C65.8289 122.389 65.8289 94.7968 82.7153 77.9104C97.1644 63.5483 119.186 61.024 136.421 71.7303C138.075 72.7749 140.251 72.2526 141.295 70.5988C142.34 68.945 141.818 66.7689 140.164 65.7244Z" fill="black" style="mix-blend-mode:overlay"/>
<defs>
<filter id="filter0_bd_354_3811" x="-17" y="-21" width="260" height="260" filterUnits="userSpaceOnUse" color-interpolation-filters="sRGB">
<feFlood flood-opacity="0" result="BackgroundImageFix"/>
<feGaussianBlur in="BackgroundImage" stdDeviation="20"/>
<feComposite in2="SourceAlpha" operator="in" result="effect1_backgroundBlur_354_3811"/>
<feColorMatrix in="SourceAlpha" type="matrix" values="0 0 0 0 0 0 0 0 0 0 0 0 0 0 0 0 0 0 127 0" result="hardAlpha"/>
<feMorphology radius="1" operator="erode" in="SourceAlpha" result="effect2_dropShadow_354_3811"/>
<feOffset dy="4"/>
<feGaussianBlur stdDeviation="12"/>
<feComposite in2="hardAlpha" operator="out"/>
<feColorMatrix type="matrix" values="0 0 0 0 0 0 0 0 0 0 0 0 0 0 0 0 0 0 0.2 0"/>
<feBlend mode="normal" in2="effect1_backgroundBlur_354_3811" result="effect2_dropShadow_354_3811"/>
<feBlend mode="normal" in="SourceGraphic" in2="effect2_dropShadow_354_3811" result="shape"/>
</filter>
<linearGradient id="paint0_linear_354_3811" x1="113" y1="19" x2="189.364" y2="186.466" gradientUnits="userSpaceOnUse">
<stop stop-color="white" stop-opacity="0.4"/>
<stop offset="1" stop-color="white" stop-opacity="0.1"/>
</linearGradient>
<linearGradient id="paint1_linear_354_3811" x1="113" y1="19" x2="223.501" y2="125.378" gradientUnits="userSpaceOnUse">
<stop stop-color="white" stop-opacity="0.4"/>
<stop offset="0.32893" stop-color="#626262" stop-opacity="0.39"/>
<stop offset="0.593712" stop-color="#A3A9B9" stop-opacity="0.47"/>
<stop offset="1" stop-color="#353E58" stop-opacity="0.56"/>
</linearGradient>
</defs>
</svg>
