<svg width="23" height="21" viewBox="0 0 23 21" fill="none" xmlns="http://www.w3.org/2000/svg">
<path fill-rule="evenodd" clip-rule="evenodd" d="M7.91559 4.40111H14.9574V4.4011H21.106V9.82081C21.029 10.7206 20.2713 11.43 19.352 11.43H3.52089C2.55072 11.43 1.76044 10.6398 1.76044 9.6696V7.02893H1.76043V4.4011H7.91559V4.40111ZM7.91559 2.64066V1.76044C7.91559 0.790272 8.70586 0 9.67603 0H13.1969C14.1671 0 14.9574 0.790272 14.9574 1.76044V2.64066H22.8729V7.02893H22.8729V9.6696L22.8729 9.67441V20.2258H22.8665H0.00640869V9.88309C0.00215674 9.81246 0 9.74127 0 9.6696V7.02893H0.00640869V2.64066H7.91559ZM13.1969 2.64066H9.67603V1.76044H13.1969V2.64066ZM1.76043 18.4718V12.7174C2.27872 13.0182 2.88019 13.1905 3.52089 13.1905H19.352C19.9907 13.1905 20.5896 13.02 21.106 12.7218V18.4718H1.76043Z" fill="#10D048"/>
</svg>
