<svg width="211" height="18" viewBox="0 0 211 18" fill="none" xmlns="http://www.w3.org/2000/svg">
<rect width="211" height="18" fill="#E55C57"/>
<mask id="mask0_174_2427" style="mask-type:alpha" maskUnits="userSpaceOnUse" x="0" y="0" width="211" height="18">
<rect width="211" height="18" fill="#E55C57"/>
</mask>
<g mask="url(#mask0_174_2427)">
<path d="M216.266 6.10405C215.966 5.80405 215.666 5.50405 215.266 5.30405C214.566 5.00405 213.866 4.90405 213.166 5.10405C212.866 5.20405 212.666 5.30405 212.466 5.50405C212.266 5.70405 212.066 5.80405 211.866 6.10405V5.10405H210.866V15.2041H211.866V11.404C212.066 11.604 212.266 11.8041 212.466 12.0041C212.666 12.2041 212.966 12.304 213.166 12.404C213.866 12.604 214.666 12.6041 215.266 12.2041C215.666 12.0041 215.966 11.704 216.266 11.404C216.566 11.104 216.766 10.7041 216.966 10.2041C217.166 9.70405 217.266 9.30405 217.266 8.70405C217.266 8.10405 217.166 7.70405 216.966 7.20405C216.766 6.80405 216.566 6.40405 216.266 6.10405ZM215.966 9.80406C215.866 10.1041 215.666 10.4041 215.466 10.7041C215.266 10.9041 215.066 11.1041 214.766 11.3041C214.266 11.6041 213.566 11.6041 213.066 11.3041C212.766 11.2041 212.566 11.0041 212.366 10.7041C212.166 10.5041 211.966 10.2041 211.866 9.80406C211.766 9.50406 211.666 9.10405 211.666 8.70405C211.666 8.30405 211.766 8.00405 211.866 7.60404C211.966 7.30404 212.166 7.00405 212.366 6.70405C212.566 6.50405 212.766 6.30405 213.066 6.10405C213.366 6.00405 213.666 5.90405 213.966 5.90405C214.266 5.90405 214.566 6.00405 214.866 6.10405C215.166 6.20405 215.366 6.40405 215.566 6.70405C215.766 6.90405 215.966 7.20404 216.066 7.60404C216.166 7.90405 216.266 8.30405 216.266 8.70405C216.166 9.10405 216.066 9.50406 215.966 9.80406Z" fill="#010101"/>
<path d="M221.866 5.00403H221.666C220.966 5.00403 220.366 5.20403 219.866 5.50403C219.666 5.60403 219.466 5.80403 219.366 6.00403V5.20403H218.366V12.504H219.366V8.60402C219.366 8.20402 219.466 7.90402 219.466 7.60402C219.566 7.30402 219.666 7.00402 219.866 6.80402C220.066 6.60402 220.266 6.40402 220.566 6.30402C220.866 6.20402 221.166 6.10403 221.566 6.10403H221.866V5.00403Z" fill="#010101"/>
<path d="M227.666 6.10403C227.366 5.80403 226.966 5.50403 226.566 5.30403C225.666 4.90403 224.666 4.90403 223.766 5.30403C223.366 5.50403 222.966 5.70403 222.666 6.10403C222.366 6.40403 222.066 6.80404 221.866 7.30404C221.666 7.80404 221.566 8.30404 221.566 8.80404C221.566 9.40404 221.666 9.90404 221.866 10.304C222.066 10.804 222.266 11.204 222.666 11.504C222.966 11.804 223.366 12.104 223.766 12.304C224.166 12.504 224.666 12.604 225.166 12.604C225.666 12.604 226.166 12.504 226.566 12.304C226.966 12.104 227.366 11.904 227.666 11.504C227.966 11.204 228.266 10.804 228.466 10.304C228.666 9.80404 228.766 9.30404 228.766 8.80404C228.766 8.20404 228.666 7.70404 228.466 7.30404C228.266 6.90404 227.966 6.40403 227.666 6.10403ZM227.466 9.90403C227.366 10.204 227.166 10.504 226.966 10.804C226.766 11.004 226.466 11.204 226.166 11.404C225.566 11.704 224.866 11.704 224.166 11.404C223.866 11.304 223.566 11.104 223.366 10.804C223.166 10.604 222.966 10.304 222.866 9.90403C222.766 9.60403 222.666 9.20404 222.666 8.80404C222.666 8.40404 222.766 8.00403 222.866 7.70403C222.966 7.40403 223.166 7.10403 223.366 6.80403C223.566 6.60403 223.866 6.40403 224.166 6.20403C224.466 6.10403 224.766 6.00403 225.166 6.00403C225.466 6.00403 225.866 6.10403 226.166 6.20403C226.466 6.30403 226.766 6.50403 226.966 6.80403C227.166 7.00403 227.366 7.30403 227.466 7.70403C227.566 8.00403 227.666 8.40404 227.666 8.80404C227.666 9.20404 227.666 9.50403 227.466 9.90403Z" fill="#010101"/>
<path fill-rule="evenodd" clip-rule="evenodd" d="M115.1 2V12.8H114.1V11.8C113.967 11.9999 113.833 12.111 113.7 12.222L113.639 12.2734C113.593 12.3127 113.546 12.3538 113.5 12.4C113.3 12.6 113.1 12.7 112.8 12.8C112.6 12.9 112.3 12.9 112 12.9C111.5 12.9 111.1 12.8 110.7 12.6C110.3 12.4 110 12.1 109.7 11.8C109.4 11.5 109.2 11.1 109 10.6C108.8 10.1 108.7 9.59998 108.7 9.09998C108.7 8.5 108.8 8.09998 109 7.59998C109.2 7.09998 109.4 6.69995 109.7 6.40002C110 6.09998 110.3 5.80005 110.7 5.59998C111.3 5.19995 112.1 5.19995 112.8 5.40002C112.847 5.42358 112.9 5.44714 112.956 5.47205C113.136 5.55273 113.347 5.64722 113.5 5.80005L114.1 6.40002V2H115.1ZM113.4 11C113.6 10.7 113.8 10.4 113.9 10.1C114 9.80005 114.1 9.40002 114.2 9C114.2 8.59998 114.1 8.19995 114 7.90002C113.9 7.5 113.7 7.19995 113.5 7C113.3 6.69995 113.1 6.5 112.8 6.40002L112.799 6.39966C112.499 6.2998 112.2 6.19995 111.9 6.19995C111.6 6.19995 111.3 6.30005 111 6.40002C110.7 6.59973 110.501 6.79956 110.301 6.99927L110.3 7C110.1 7.30005 109.9 7.59998 109.8 7.90002L109.774 8.00293L109.753 8.08179L109.751 8.09241L109.749 8.09827C109.669 8.40601 109.6 8.6687 109.6 9C109.6 9.40002 109.7 9.80005 109.8 10.1C109.9 10.5 110.1 10.8 110.3 11C110.5 11.3 110.7 11.5 111 11.6C111.5 11.9 112.2 11.9 112.7 11.6L112.753 11.5649L112.828 11.5162C113.06 11.3658 113.23 11.2554 113.4 11Z" fill="#010101"/>
<path fill-rule="evenodd" clip-rule="evenodd" d="M106.8 6.29993C106.5 6 106.1 5.69995 105.7 5.5C104.8 5.09998 103.8 5.09998 102.9 5.5C102.5 5.69995 102.1 5.8999 101.8 6.29993C101.5 6.59998 101.2 7 101 7.5C100.8 8 100.7 8.5 100.7 9C100.7 9.59998 100.8 10.1 101 10.5C101.2 11 101.4 11.3999 101.8 11.7C102.1 12 102.5 12.2999 102.9 12.5C103.3 12.7 103.8 12.7999 104.3 12.7999C104.8 12.7999 105.3 12.7 105.7 12.5C106.1 12.2999 106.5 12.1 106.8 11.7C107.1 11.3999 107.4 11 107.6 10.5C107.8 10 107.9 9.5 107.9 9C107.9 8.3999 107.8 7.8999 107.6 7.5C107.4 7.09998 107.1 6.69995 106.8 6.29993ZM106.6 10.1C106.5 10.3999 106.3 10.7 106.1 11C105.9 11.1996 105.601 11.3992 105.302 11.5989L105.3 11.6C104.7 11.8999 104 11.8999 103.3 11.6C103 11.5 102.7 11.2999 102.5 11C102.3 10.7999 102.1 10.5 102 10.1C101.9 9.79993 101.8 9.3999 101.8 9C101.8 8.59998 101.9 8.19995 102 7.8999C102.1 7.59998 102.3 7.29993 102.5 7C102.7 6.80029 102.999 6.60071 103.298 6.401L103.3 6.3999C103.6 6.29993 103.9 6.19995 104.3 6.19995C104.6 6.19995 105 6.29993 105.3 6.3999C105.6 6.5 105.9 6.69995 106.1 7C106.3 7.19995 106.5 7.5 106.6 7.8999C106.7 8.19995 106.8 8.59998 106.8 9C106.8 9.3999 106.8 9.79993 106.6 10.1Z" fill="#010101"/>
<path fill-rule="evenodd" clip-rule="evenodd" d="M94.4 5.59998C94.7997 5.7998 95.0996 6.09949 95.3994 6.39917C95.6994 6.69922 95.9 7.09998 96.1 7.5C96.3 8 96.4 8.5 96.4 9C96.4 9.59998 96.3 10 96.1 10.5C95.9 11 95.7 11.3999 95.4 11.7C95.1 12 94.8 12.2999 94.4 12.5C93.8 12.8999 93 12.8999 92.3 12.7C92.2528 12.6764 92.2001 12.6528 92.1444 12.6279C91.964 12.5472 91.7528 12.4528 91.6 12.2999L91 11.7V15.5H90V5.3999H91V6.3999C91.1333 6.20007 91.2666 6.08899 91.3998 5.97791C91.4666 5.92224 91.5333 5.8667 91.6 5.79993C91.8 5.59998 92 5.5 92.3 5.3999C93 5.19995 93.8 5.29993 94.4 5.59998ZM94.6 11C94.8 10.7 95 10.3999 95.1 10.1C95.1999 9.80042 95.2997 9.40112 95.3995 9.00183L95.4 9C95.4 8.59998 95.3 8.19995 95.2 7.8999C95.1 7.5 94.9 7.19995 94.7 7C94.5 6.69995 94.3 6.5 94 6.3999C93.7 6.29993 93.4 6.19995 93.1 6.19995C92.8 6.19995 92.5 6.29993 92.2 6.3999C91.9 6.59998 91.7 6.79993 91.5 7C91.3 7.29993 91.1 7.59998 91 7.8999C90.9829 7.96851 90.9657 8.03418 90.9491 8.0979C90.8687 8.40576 90.8 8.66858 90.8 9C90.8 9.3999 90.9 9.79993 91 10.1C91.1 10.5 91.3 10.7999 91.5 11C91.7 11.2999 91.9 11.5 92.2 11.6C92.7 11.8999 93.4 11.8999 93.9 11.6C94.2 11.3999 94.4 11.2 94.6 11Z" fill="#010101"/>
<path d="M98.5554 8.22766C98.5287 8.40002 98.5 8.58569 98.5 8.80005H98.4V12.8H97.4V5.5H98.4V6.30005C98.5 6.1001 98.7 5.90002 98.9 5.80005C99.4 5.5 100 5.30005 100.7 5.30005H100.9V6.30005H100.7C100.3 6.30005 100 6.40002 99.7 6.5C99.4 6.6001 99.2 6.80005 99 7C98.8 7.20007 98.7 7.5 98.6 7.80005C98.6 7.93933 98.5785 8.07849 98.5554 8.22766Z" fill="#010101"/>
<path d="M121.4 9.69995C121.4 9.93738 121.337 10.1121 121.262 10.3234L121.26 10.3278C121.241 10.3821 121.22 10.439 121.2 10.5C121.1 10.7 120.9 11 120.8 11.1C120.6 11.2999 120.4 11.3999 120.2 11.5C119.7 11.7 119.2 11.7 118.7 11.5C118.5 11.3999 118.3 11.2999 118.1 11.1C117.9 10.8999 117.8 10.7999 117.7 10.5C117.6 10.2999 117.6 10.1 117.6 9.79993V5.19995H116.6V9.79993C116.6 10.2 116.7 10.6 116.8 10.8999C116.9 11.2 117.1 11.5 117.4 11.7999C117.7 12.1 118 12.2999 118.3 12.3999C118.6 12.5 119 12.6 119.4 12.6C119.9 12.6 120.4 12.5 120.8 12.2C120.9 12.1499 121 12.075 121.1 12C121.2 11.9249 121.3 11.8499 121.4 11.7999V12.5H122.4V5.19995H121.4V9.69995Z" fill="#010101"/>
<path d="M131.1 2.80005L132.1 2.5H132.4V5.40002H133.8V6.40002H132.4V10.5C132.4 10.8 132.5 11.1 132.7 11.3C132.9 11.5 133.2 11.6 133.5 11.6H133.7V12.6H133.5C133.263 12.6 133.088 12.5374 132.877 12.4617C132.821 12.4418 132.763 12.4209 132.7 12.4C132.619 12.3463 132.546 12.2998 132.478 12.2566C132.293 12.139 132.146 12.0463 132 11.9C131.8 11.7 131.6 11.5 131.5 11.2C131.4 11 131.3 10.7 131.3 10.4V6.30005H130.1L129.3 7L129.1 6.80005C128.6 6.30005 128 6.09998 127.3 6.09998C126.9 6.09998 126.6 6.19995 126.3 6.30005C126 6.5 125.7 6.69995 125.5 6.90002C125.3 7.19995 125.1 7.5 125 7.80005C124.9 8.09998 124.8 8.5 124.8 8.90002C124.8 9.30005 124.9 9.69995 125 10C125.1 10.4 125.3 10.7 125.5 10.9C125.7 11.2 126 11.4 126.3 11.5C126.9 11.8 127.6 11.8 128.2 11.5C128.5 11.4 128.8 11.2 129 11L129.2 10.8L130 11.5L129.8 11.7C129.5 12.1 129.1 12.3 128.7 12.5C128.3 12.7 127.8 12.8 127.3 12.8C126.8 12.8 126.3 12.7 125.9 12.5C125.5 12.3 125.1 12 124.8 11.7C124.4 11.4 124.2 11 124 10.5C123.8 10.1 123.7 9.59998 123.7 9C123.7 8.5 123.8 8 124 7.5C124.153 7.11743 124.365 6.85193 124.59 6.56909C124.659 6.4823 124.73 6.39392 124.8 6.30005C125.1 5.90002 125.5 5.69995 125.9 5.5C126.8 5.09998 127.8 5.09998 128.7 5.5C129.1 5.69995 129.5 6 129.8 6.30005L129.9 6.40002V5.40002H131.1V2.80005Z" fill="#010101"/>
<path d="M135.3 2.59998H134.3V4.5H135.3V2.59998Z" fill="#010101"/>
<path d="M134.3 5.40002H135.3V12.7001H134.3V5.40002Z" fill="#010101"/>
<path fill-rule="evenodd" clip-rule="evenodd" d="M142.6 6.29993C142.3 6 141.9 5.69995 141.5 5.5C140.6 5.09998 139.6 5.09998 138.7 5.5C138.3 5.69995 137.9 5.8999 137.6 6.29993C137.53 6.39392 137.459 6.48242 137.39 6.56921L137.389 6.56995C137.164 6.85254 136.953 7.1178 136.8 7.5C136.6 8 136.5 8.5 136.5 9C136.5 9.59998 136.6 10.1 136.8 10.5C137 11 137.2 11.3999 137.6 11.7C137.9 12 138.3 12.2999 138.7 12.5C139.1 12.7 139.6 12.7999 140.1 12.7999C140.6 12.7999 141.1 12.7 141.5 12.5C141.9 12.2999 142.3 12.1 142.6 11.7C142.9 11.3999 143.2 11 143.4 10.5C143.6 10 143.7 9.5 143.7 9C143.7 8.3999 143.6 7.8999 143.4 7.5C143.247 7.1178 143.036 6.85254 142.811 6.56995L142.81 6.56921C142.741 6.48242 142.671 6.39392 142.6 6.29993ZM142.4 10.1C142.3 10.3999 142.1 10.7 141.9 11C141.7 11.1996 141.401 11.3992 141.102 11.5989L141.1 11.6C140.5 11.8999 139.8 11.8999 139.1 11.6C138.8 11.5 138.5 11.2999 138.3 11C138.1 10.7999 137.9 10.5 137.8 10.1C137.7 9.79993 137.6 9.3999 137.6 9C137.6 8.59998 137.7 8.19995 137.8 7.8999C137.9 7.59998 138.1 7.29993 138.3 7C138.5 6.80029 138.799 6.60071 139.098 6.401L139.1 6.3999C139.4 6.29993 139.7 6.19995 140.1 6.19995C140.4 6.19995 140.8 6.29993 141.1 6.3999C141.4 6.5 141.7 6.69995 141.9 7C142.1 7.19995 142.3 7.5 142.4 7.8999C142.5 8.19995 142.6 8.59998 142.6 9C142.6 9.3999 142.5 9.79993 142.4 10.1Z" fill="#010101"/>
<path d="M149.8 6.1001C150.1 6.40002 150.3 6.70007 150.4 7C150.6 7.30005 150.6 7.70007 150.5 8.30005V12.9H149.5V8.30005C149.5 8 149.5 7.80005 149.4 7.6001C149.3 7.30005 149.2 7.20007 149 7C148.8 6.80005 148.6 6.70007 148.4 6.6001C147.9 6.40002 147.4 6.40002 146.9 6.6001C146.7 6.70007 146.5 6.80005 146.3 7C146.2 7.1001 146 7.40002 145.9 7.6001C145.879 7.6626 145.858 7.72083 145.838 7.77649C145.763 7.98779 145.7 8.1626 145.7 8.40002V12.7001H144.7V5.40002H145.7V6.1001C145.8 6.05005 145.9 5.9751 146 5.90015C146.1 5.8252 146.2 5.75012 146.3 5.70007C146.8 5.40002 147.3 5.30005 147.8 5.30005C148.2 5.30005 148.6 5.40002 148.9 5.5C149.3 5.6001 149.5 5.80005 149.8 6.1001Z" fill="#010101"/>
<path d="M171.966 6.35002C171.666 6.05002 171.366 5.75003 170.966 5.55003C170.266 5.25003 169.566 5.15002 168.866 5.35002C168.566 5.45002 168.366 5.55002 168.166 5.75002C167.966 5.95002 167.766 6.15002 167.566 6.35002V5.35002H166.566V15.45H167.566V11.65C167.766 11.85 167.966 12.05 168.166 12.25C168.366 12.45 168.666 12.55 168.866 12.65C169.566 12.85 170.366 12.85 170.966 12.45C171.366 12.25 171.666 11.95 171.966 11.65C172.266 11.35 172.466 10.95 172.666 10.45C172.866 9.95003 172.966 9.55003 172.966 8.95003C172.966 8.45003 172.866 7.95003 172.666 7.45003C172.466 7.05003 172.266 6.65002 171.966 6.35002ZM171.666 10.05C171.566 10.35 171.366 10.65 171.166 10.95C170.966 11.15 170.766 11.35 170.466 11.55C169.966 11.85 169.266 11.85 168.766 11.55C168.466 11.45 168.266 11.25 168.066 10.95C167.866 10.75 167.666 10.45 167.566 10.05C167.466 9.75003 167.366 9.35003 167.366 8.95003C167.366 8.55003 167.466 8.25002 167.566 7.85002C167.666 7.55002 167.866 7.25003 168.066 6.95003C168.266 6.75003 168.466 6.55002 168.766 6.35002C169.066 6.25002 169.366 6.15003 169.666 6.15003C169.966 6.15003 170.266 6.25002 170.566 6.35002C170.866 6.45002 171.066 6.65003 171.266 6.95003C171.466 7.15003 171.666 7.45002 171.766 7.85002C171.866 8.15002 171.966 8.55003 171.966 8.95003C171.866 9.35003 171.766 9.75003 171.666 10.05Z" fill="#010101"/>
<path d="M175.066 8.75C175.066 8.35 175.166 8.05 175.166 7.75C175.266 7.45 175.366 7.15 175.566 6.95C175.766 6.75 175.966 6.55 176.266 6.45C176.566 6.35 176.866 6.25 177.266 6.25H177.466V5.25H177.266C176.566 5.25 175.966 5.45 175.466 5.75C175.266 5.85 175.066 6.05 174.966 6.25V5.45H173.966V12.75H174.966V8.75H175.066Z" fill="#010101"/>
<path d="M183.366 6.25002C183.066 5.95002 182.666 5.65002 182.266 5.45002C181.366 5.05002 180.366 5.05002 179.466 5.45002C179.066 5.65002 178.666 5.85002 178.366 6.25002C178.066 6.55002 177.766 6.95002 177.566 7.45002C177.366 7.95002 177.266 8.45002 177.266 8.95002C177.266 9.55002 177.366 10.05 177.566 10.45C177.766 10.95 177.966 11.35 178.366 11.65C178.666 11.95 179.066 12.25 179.466 12.45C179.866 12.65 180.366 12.75 180.866 12.75C181.366 12.75 181.866 12.65 182.266 12.45C182.666 12.25 183.066 12.05 183.366 11.65C183.666 11.35 183.966 10.95 184.166 10.45C184.366 9.95002 184.466 9.45002 184.466 8.95002C184.466 8.35002 184.366 7.85002 184.166 7.45002C183.966 7.05002 183.666 6.65002 183.366 6.25002ZM183.166 10.15C183.066 10.45 182.866 10.75 182.666 11.05C182.466 11.25 182.166 11.45 181.866 11.65C181.266 11.95 180.566 11.95 179.866 11.65C179.566 11.55 179.266 11.35 179.066 11.05C178.866 10.85 178.666 10.55 178.566 10.15C178.466 9.85002 178.366 9.45002 178.366 9.05002C178.366 8.65002 178.466 8.25002 178.566 7.95002C178.666 7.65002 178.866 7.35002 179.066 7.05002C179.266 6.85002 179.566 6.65002 179.866 6.45002C180.166 6.35002 180.466 6.25002 180.866 6.25002C181.166 6.25002 181.566 6.35002 181.866 6.45002C182.166 6.55002 182.466 6.75002 182.666 7.05002C182.866 7.25002 183.066 7.55002 183.166 7.95002C183.266 8.25002 183.366 8.65002 183.366 9.05002C183.366 9.45002 183.366 9.75002 183.166 10.15Z" fill="#010101"/>
<path d="M189.766 2.65C189.566 2.45 189.366 2.25 189.066 2.15C188.466 1.95 187.866 1.95 187.266 2.15C186.966 2.25 186.766 2.45 186.566 2.65C186.366 2.85 186.166 3.05 186.066 3.35C185.966 3.65 185.866 3.95 185.866 4.25V5.35H184.766V6.35H185.866V12.55H186.866V6.35H188.766V5.35H186.866V4.25C186.866 4.05 186.866 3.95 186.966 3.75C187.066 3.55 187.166 3.45 187.266 3.35C187.366 3.25 187.466 3.15 187.666 3.05C187.966 2.95 188.366 2.95 188.666 3.05C188.766 3.15 188.966 3.25 189.066 3.35C189.166 3.45 189.266 3.55 189.366 3.75C189.466 3.85 189.466 4.05 189.466 4.25V4.45H190.466V4.25C190.466 3.95 190.366 3.65 190.266 3.35C190.066 3.05 189.966 2.85 189.766 2.65Z" fill="#010101"/>
<path d="M190.366 5.34998H189.366V12.65H190.366V5.34998Z" fill="#010101"/>
<path d="M193.366 2.44995L192.366 2.74995V5.34995H191.166V6.34995H192.366V10.45C192.366 10.75 192.466 11.0499 192.566 11.2499C192.666 11.5499 192.866 11.75 193.066 11.95C193.266 12.15 193.466 12.25 193.766 12.45C194.066 12.55 194.266 12.6499 194.566 12.6499H194.766V11.6499H194.566C194.266 11.6499 193.966 11.5499 193.766 11.3499C193.566 11.1499 193.466 10.8499 193.466 10.5499V6.44995H194.866V5.44995H193.466V2.44995H193.366Z" fill="#010101"/>
<path d="M62.2657 6.10405C61.9657 5.80405 61.6657 5.50405 61.2657 5.30405C60.5657 5.00405 59.8657 4.90405 59.1657 5.10405C58.8657 5.20405 58.6657 5.30405 58.4657 5.50405C58.2657 5.70405 58.0657 5.80405 57.8657 6.10405V5.10405H56.8657V15.2041H57.8657V11.404C58.0657 11.604 58.2657 11.8041 58.4657 12.0041C58.6657 12.2041 58.9657 12.304 59.1657 12.404C59.8657 12.604 60.6657 12.6041 61.2657 12.2041C61.6657 12.0041 61.9657 11.704 62.2657 11.404C62.5657 11.104 62.7657 10.7041 62.9657 10.2041C63.1657 9.70405 63.2657 9.30405 63.2657 8.70405C63.2657 8.10405 63.1657 7.70405 62.9657 7.20405C62.7657 6.80405 62.5657 6.40405 62.2657 6.10405ZM61.9657 9.80406C61.8657 10.1041 61.6657 10.4041 61.4657 10.7041C61.2657 10.9041 61.0657 11.1041 60.7657 11.3041C60.2657 11.6041 59.5657 11.6041 59.0657 11.3041C58.7657 11.2041 58.5657 11.0041 58.3657 10.7041C58.1657 10.5041 57.9657 10.2041 57.8657 9.80406C57.7657 9.50406 57.6657 9.10405 57.6657 8.70405C57.6657 8.30405 57.7657 8.00405 57.8657 7.60404C57.9657 7.30404 58.1657 7.00405 58.3657 6.70405C58.5657 6.50405 58.7657 6.30405 59.0657 6.10405C59.3657 6.00405 59.6657 5.90405 59.9657 5.90405C60.2657 5.90405 60.5657 6.00405 60.8657 6.10405C61.1657 6.20405 61.3657 6.40405 61.5657 6.70405C61.7657 6.90405 61.9657 7.20404 62.0657 7.60404C62.1657 7.90405 62.2657 8.30405 62.2657 8.70405C62.1657 9.10405 62.0657 9.50406 61.9657 9.80406Z" fill="#010101"/>
<path d="M67.8657 5.00403H67.6657C66.9657 5.00403 66.3657 5.20403 65.8657 5.50403C65.6657 5.60403 65.4657 5.80403 65.3657 6.00403V5.20403H64.3657V12.504H65.3657V8.60402C65.3657 8.20402 65.4657 7.90402 65.4657 7.60402C65.5657 7.30402 65.6657 7.00402 65.8657 6.80402C66.0657 6.60402 66.2657 6.40402 66.5657 6.30402C66.8657 6.20402 67.1657 6.10403 67.5657 6.10403H67.8657V5.00403Z" fill="#010101"/>
<path d="M73.6657 6.10403C73.3657 5.80403 72.9657 5.50403 72.5657 5.30403C71.6657 4.90403 70.6657 4.90403 69.7657 5.30403C69.3657 5.50403 68.9657 5.70403 68.6657 6.10403C68.3657 6.40403 68.0657 6.80404 67.8657 7.30404C67.6657 7.80404 67.5657 8.30404 67.5657 8.80404C67.5657 9.40404 67.6657 9.90404 67.8657 10.304C68.0657 10.804 68.2657 11.204 68.6657 11.504C68.9657 11.804 69.3657 12.104 69.7657 12.304C70.1657 12.504 70.6657 12.604 71.1657 12.604C71.6657 12.604 72.1657 12.504 72.5657 12.304C72.9657 12.104 73.3657 11.904 73.6657 11.504C73.9657 11.204 74.2657 10.804 74.4657 10.304C74.6657 9.80404 74.7657 9.30404 74.7657 8.80404C74.7657 8.20404 74.6657 7.70404 74.4657 7.30404C74.2657 6.90404 73.9657 6.40403 73.6657 6.10403ZM73.4657 9.90403C73.3657 10.204 73.1657 10.504 72.9657 10.804C72.7657 11.004 72.4657 11.204 72.1657 11.404C71.5657 11.704 70.8657 11.704 70.1657 11.404C69.8657 11.304 69.5657 11.104 69.3657 10.804C69.1657 10.604 68.9657 10.304 68.8657 9.90403C68.7657 9.60403 68.6657 9.20404 68.6657 8.80404C68.6657 8.40404 68.7657 8.00403 68.8657 7.70403C68.9657 7.40403 69.1657 7.10403 69.3657 6.80403C69.5657 6.60403 69.8657 6.40403 70.1657 6.20403C70.4657 6.10403 70.7657 6.00403 71.1657 6.00403C71.4657 6.00403 71.8657 6.10403 72.1657 6.20403C72.4657 6.30403 72.7657 6.50403 72.9657 6.80403C73.1657 7.00403 73.3657 7.30403 73.4657 7.70403C73.5657 8.00403 73.6657 8.40404 73.6657 8.80404C73.6657 9.20404 73.6657 9.50403 73.4657 9.90403Z" fill="#010101"/>
<path fill-rule="evenodd" clip-rule="evenodd" d="M-38.9 2V12.8H-39.9V11.8C-40.0333 11.9999 -40.1665 12.111 -40.2998 12.222L-40.3612 12.2734C-40.4074 12.3127 -40.4537 12.3538 -40.5 12.4C-40.7 12.6 -40.9 12.7 -41.2 12.8C-41.4 12.9 -41.7 12.9 -42 12.9C-42.5 12.9 -42.9 12.8 -43.3 12.6C-43.7 12.4 -44 12.1 -44.3 11.8C-44.6 11.5 -44.8 11.1 -45 10.6C-45.2 10.1 -45.3 9.59998 -45.3 9.09998C-45.3 8.5 -45.2 8.09998 -45 7.59998C-44.8 7.09998 -44.6 6.69995 -44.3 6.40002C-44 6.09998 -43.7 5.80005 -43.3 5.59998C-42.7 5.19995 -41.9 5.19995 -41.2 5.40002C-41.1528 5.42358 -41.1001 5.44714 -41.0444 5.47205C-40.864 5.55273 -40.6528 5.64722 -40.5 5.80005L-39.9 6.40002V2H-38.9ZM-40.6 11C-40.4 10.7 -40.2 10.4 -40.1 10.1C-40 9.80005 -39.9 9.40002 -39.8 9C-39.8 8.59998 -39.9 8.19995 -40 7.90002C-40.1 7.5 -40.3 7.19995 -40.5 7C-40.7 6.69995 -40.9 6.5 -41.2 6.40002L-41.201 6.39966C-41.5007 6.2998 -41.8004 6.19995 -42.1 6.19995C-42.4 6.19995 -42.7 6.30005 -43 6.40002C-43.2996 6.59973 -43.4994 6.79956 -43.6992 6.99927L-43.7 7C-43.9 7.30005 -44.1 7.59998 -44.2 7.90002L-44.2262 8.00293L-44.2466 8.08179L-44.2494 8.09241L-44.251 8.09827C-44.3314 8.40601 -44.4 8.6687 -44.4 9C-44.4 9.40002 -44.3 9.80005 -44.2 10.1C-44.1 10.5 -43.9 10.8 -43.7 11C-43.5 11.3 -43.3 11.5 -43 11.6C-42.5 11.9 -41.8 11.9 -41.3 11.6L-41.2469 11.5649L-41.1721 11.5162C-40.9404 11.3658 -40.7702 11.2554 -40.6 11Z" fill="#010101"/>
<path fill-rule="evenodd" clip-rule="evenodd" d="M-47.2 6.29993C-47.5 6 -47.9 5.69995 -48.3 5.5C-49.2 5.09998 -50.2 5.09998 -51.1 5.5C-51.5 5.69995 -51.9 5.8999 -52.2 6.29993C-52.5 6.59998 -52.8 7 -53 7.5C-53.2 8 -53.3 8.5 -53.3 9C-53.3 9.59998 -53.2 10.1 -53 10.5C-52.8 11 -52.6 11.3999 -52.2 11.7C-51.9 12 -51.5 12.2999 -51.1 12.5C-50.7 12.7 -50.2 12.7999 -49.7 12.7999C-49.2 12.7999 -48.7 12.7 -48.3 12.5C-47.9 12.2999 -47.5 12.1 -47.2 11.7C-46.9 11.3999 -46.6 11 -46.4 10.5C-46.2 10 -46.1 9.5 -46.1 9C-46.1 8.3999 -46.2 7.8999 -46.4 7.5C-46.6 7.09998 -46.9 6.69995 -47.2 6.29993ZM-47.4 10.1C-47.5 10.3999 -47.7 10.7 -47.9 11C-48.0997 11.1996 -48.399 11.3992 -48.6985 11.5989L-48.7 11.6C-49.3 11.8999 -50 11.8999 -50.7 11.6C-51 11.5 -51.3 11.2999 -51.5 11C-51.7 10.7999 -51.9 10.5 -52 10.1C-52.1 9.79993 -52.2 9.3999 -52.2 9C-52.2 8.59998 -52.1 8.19995 -52 7.8999C-51.9 7.59998 -51.7 7.29993 -51.5 7C-51.3004 6.80029 -51.0012 6.60071 -50.7018 6.401L-50.7 6.3999C-50.4 6.29993 -50.1 6.19995 -49.7 6.19995C-49.4 6.19995 -49 6.29993 -48.7 6.3999C-48.4 6.5 -48.1 6.69995 -47.9 7C-47.7 7.19995 -47.5 7.5 -47.4 7.8999C-47.3 8.19995 -47.2 8.59998 -47.2 9C-47.2 9.3999 -47.2 9.79993 -47.4 10.1Z" fill="#010101"/>
<path fill-rule="evenodd" clip-rule="evenodd" d="M-59.6 5.59998C-59.2003 5.7998 -58.9004 6.09949 -58.6006 6.39917C-58.3006 6.69922 -58.1 7.09998 -57.9 7.5C-57.7 8 -57.6 8.5 -57.6 9C-57.6 9.59998 -57.7 10 -57.9 10.5C-58.1 11 -58.3 11.3999 -58.6 11.7C-58.9 12 -59.2 12.2999 -59.6 12.5C-60.2 12.8999 -61 12.8999 -61.7 12.7C-61.7472 12.6764 -61.7999 12.6528 -61.8556 12.6279C-62.036 12.5472 -62.2472 12.4528 -62.4 12.2999L-63 11.7V15.5H-64V5.3999H-63V6.3999C-62.8667 6.20007 -62.7334 6.08899 -62.6002 5.97791C-62.5334 5.92224 -62.4667 5.8667 -62.4 5.79993C-62.2 5.59998 -62 5.5 -61.7 5.3999C-61 5.19995 -60.2 5.29993 -59.6 5.59998ZM-59.4 11C-59.2 10.7 -59 10.3999 -58.9 10.1C-58.8001 9.80042 -58.7003 9.40112 -58.6005 9.00183L-58.6 9C-58.6 8.59998 -58.7 8.19995 -58.8 7.8999C-58.9 7.5 -59.1 7.19995 -59.3 7C-59.5 6.69995 -59.7 6.5 -60 6.3999C-60.3 6.29993 -60.6 6.19995 -60.9 6.19995C-61.2 6.19995 -61.5 6.29993 -61.8 6.3999C-62.1 6.59998 -62.3 6.79993 -62.5 7C-62.7 7.29993 -62.9 7.59998 -63 7.8999C-63.0171 7.96851 -63.0343 8.03418 -63.0509 8.0979C-63.1313 8.40576 -63.2 8.66858 -63.2 9C-63.2 9.3999 -63.1 9.79993 -63 10.1C-62.9 10.5 -62.7 10.7999 -62.5 11C-62.3 11.2999 -62.1 11.5 -61.8 11.6C-61.3 11.8999 -60.6 11.8999 -60.1 11.6C-59.8 11.3999 -59.6 11.2 -59.4 11Z" fill="#010101"/>
<path d="M-55.4446 8.22766C-55.4713 8.40002 -55.5 8.58569 -55.5 8.80005H-55.6V12.8H-56.6V5.5H-55.6V6.30005C-55.5 6.1001 -55.3 5.90002 -55.1 5.80005C-54.6 5.5 -54 5.30005 -53.3 5.30005H-53.1V6.30005H-53.3C-53.7 6.30005 -54 6.40002 -54.3 6.5C-54.6 6.6001 -54.8 6.80005 -55 7C-55.2 7.20007 -55.3 7.5 -55.4 7.80005C-55.4 7.93933 -55.4215 8.07849 -55.4446 8.22766Z" fill="#010101"/>
<path d="M-32.6 9.69995C-32.6 9.93738 -32.6626 10.1121 -32.7383 10.3234L-32.7398 10.3278C-32.7593 10.3821 -32.7797 10.439 -32.8 10.5C-32.9 10.7 -33.1 11 -33.2 11.1C-33.4 11.2999 -33.6 11.3999 -33.8 11.5C-34.3 11.7 -34.8 11.7 -35.3 11.5C-35.5 11.3999 -35.7 11.2999 -35.9 11.1C-36.1 10.8999 -36.2 10.7999 -36.3 10.5C-36.4 10.2999 -36.4 10.1 -36.4 9.79993V5.19995H-37.4V9.79993C-37.4 10.2 -37.3 10.6 -37.2 10.8999C-37.1 11.2 -36.9 11.5 -36.6 11.7999C-36.3 12.1 -36 12.2999 -35.7 12.3999C-35.4 12.5 -35 12.6 -34.6 12.6C-34.1 12.6 -33.6 12.5 -33.2 12.2C-33.1 12.1499 -33 12.075 -32.9 12C-32.8 11.9249 -32.7 11.8499 -32.6 11.7999V12.5H-31.6V5.19995H-32.6V9.69995Z" fill="#010101"/>
<path d="M-22.9 2.80005L-21.9 2.5H-21.6V5.40002H-20.2V6.40002H-21.6V10.5C-21.6 10.8 -21.5 11.1 -21.3 11.3C-21.1 11.5 -20.8 11.6 -20.5 11.6H-20.3V12.6H-20.5C-20.7374 12.6 -20.9121 12.5374 -21.1234 12.4617C-21.1791 12.4418 -21.2374 12.4209 -21.3 12.4C-21.3805 12.3463 -21.4539 12.2998 -21.5219 12.2566C-21.7074 12.139 -21.8537 12.0463 -22 11.9C-22.2 11.7 -22.4 11.5 -22.5 11.2C-22.6 11 -22.7 10.7 -22.7 10.4V6.30005H-23.9L-24.7 7L-24.9 6.80005C-25.4 6.30005 -26 6.09998 -26.7 6.09998C-27.1 6.09998 -27.4 6.19995 -27.7 6.30005C-28 6.5 -28.3 6.69995 -28.5 6.90002C-28.7 7.19995 -28.9 7.5 -29 7.80005C-29.1 8.09998 -29.2 8.5 -29.2 8.90002C-29.2 9.30005 -29.1 9.69995 -29 10C-28.9 10.4 -28.7 10.7 -28.5 10.9C-28.3 11.2 -28 11.4 -27.7 11.5C-27.1 11.8 -26.4 11.8 -25.8 11.5C-25.5 11.4 -25.2 11.2 -25 11L-24.8 10.8L-24 11.5L-24.2 11.7C-24.5 12.1 -24.9 12.3 -25.3 12.5C-25.7 12.7 -26.2 12.8 -26.7 12.8C-27.2 12.8 -27.7 12.7 -28.1 12.5C-28.5 12.3 -28.9 12 -29.2 11.7C-29.6 11.4 -29.8 11 -30 10.5C-30.2 10.1 -30.3 9.59998 -30.3 9C-30.3 8.5 -30.2 8 -30 7.5C-29.847 7.11743 -29.6354 6.85193 -29.41 6.56909C-29.3409 6.4823 -29.2704 6.39392 -29.2 6.30005C-28.9 5.90002 -28.5 5.69995 -28.1 5.5C-27.2 5.09998 -26.2 5.09998 -25.3 5.5C-24.9 5.69995 -24.5 6 -24.2 6.30005L-24.1 6.40002V5.40002H-22.9V2.80005Z" fill="#010101"/>
<path d="M-18.7 2.59998H-19.7V4.5H-18.7V2.59998Z" fill="#010101"/>
<path d="M-19.7 5.40002H-18.7V12.7001H-19.7V5.40002Z" fill="#010101"/>
<path fill-rule="evenodd" clip-rule="evenodd" d="M-11.4 6.29993C-11.7 6 -12.1 5.69995 -12.5 5.5C-13.4 5.09998 -14.4 5.09998 -15.3 5.5C-15.7 5.69995 -16.1 5.8999 -16.4 6.29993C-16.4705 6.39392 -16.541 6.48242 -16.6102 6.56921L-16.6109 6.56995C-16.8359 6.85254 -17.0471 7.1178 -17.2 7.5C-17.4 8 -17.5 8.5 -17.5 9C-17.5 9.59998 -17.4 10.1 -17.2 10.5C-17 11 -16.8 11.3999 -16.4 11.7C-16.1 12 -15.7 12.2999 -15.3 12.5C-14.9 12.7 -14.4 12.7999 -13.9 12.7999C-13.4 12.7999 -12.9 12.7 -12.5 12.5C-12.1 12.2999 -11.7 12.1 -11.4 11.7C-11.1 11.3999 -10.8 11 -10.6 10.5C-10.4 10 -10.3 9.5 -10.3 9C-10.3 8.3999 -10.4 7.8999 -10.6 7.5C-10.7529 7.1178 -10.9641 6.85254 -11.1891 6.56995L-11.1898 6.56921C-11.259 6.48242 -11.3295 6.39392 -11.4 6.29993ZM-11.6 10.1C-11.7 10.3999 -11.9 10.7 -12.1 11C-12.2997 11.1996 -12.599 11.3992 -12.8985 11.5989L-12.9 11.6C-13.5 11.8999 -14.2 11.8999 -14.9 11.6C-15.2 11.5 -15.5 11.2999 -15.7 11C-15.9 10.7999 -16.1 10.5 -16.2 10.1C-16.3 9.79993 -16.4 9.3999 -16.4 9C-16.4 8.59998 -16.3 8.19995 -16.2 7.8999C-16.1 7.59998 -15.9 7.29993 -15.7 7C-15.5003 6.80029 -15.201 6.60071 -14.9015 6.401L-14.9 6.3999C-14.6 6.29993 -14.3 6.19995 -13.9 6.19995C-13.6 6.19995 -13.2 6.29993 -12.9 6.3999C-12.6 6.5 -12.3 6.69995 -12.1 7C-11.9 7.19995 -11.7 7.5 -11.6 7.8999C-11.5 8.19995 -11.4 8.59998 -11.4 9C-11.4 9.3999 -11.5 9.79993 -11.6 10.1Z" fill="#010101"/>
<path d="M-4.19998 6.1001C-3.89998 6.40002 -3.70001 6.70007 -3.60001 7C-3.40001 7.30005 -3.39999 7.70007 -3.5 8.30005V12.9H-4.5V8.30005C-4.5 8 -4.5 7.80005 -4.60001 7.6001C-4.70001 7.30005 -4.8 7.20007 -5 7C-5.2 6.80005 -5.40001 6.70007 -5.60001 6.6001C-6.10001 6.40002 -6.60001 6.40002 -7.10001 6.6001C-7.3 6.70007 -7.49998 6.80005 -7.69998 7C-7.79999 7.1001 -8 7.40002 -8.10001 7.6001C-8.12085 7.6626 -8.14169 7.72083 -8.16164 7.77649C-8.23735 7.98779 -8.29999 8.1626 -8.29999 8.40002V12.7001H-9.29999V5.40002H-8.29999V6.1001C-8.20006 6.05005 -8.10011 5.9751 -8.00018 5.90015C-7.90012 5.8252 -7.80005 5.75012 -7.69998 5.70007C-7.19998 5.40002 -6.69998 5.30005 -6.19998 5.30005C-5.79999 5.30005 -5.40001 5.40002 -5.10001 5.5C-4.70001 5.6001 -4.49998 5.80005 -4.19998 6.1001Z" fill="#010101"/>
<path d="M17.9657 6.35002C17.6657 6.05002 17.3657 5.75003 16.9657 5.55003C16.2657 5.25003 15.5657 5.15002 14.8657 5.35002C14.5657 5.45002 14.3657 5.55002 14.1657 5.75002C13.9657 5.95002 13.7657 6.15002 13.5657 6.35002V5.35002H12.5657V15.45H13.5657V11.65C13.7657 11.85 13.9657 12.05 14.1657 12.25C14.3657 12.45 14.6657 12.55 14.8657 12.65C15.5657 12.85 16.3657 12.85 16.9657 12.45C17.3657 12.25 17.6657 11.95 17.9657 11.65C18.2657 11.35 18.4657 10.95 18.6657 10.45C18.8657 9.95003 18.9657 9.55003 18.9657 8.95003C18.9657 8.45003 18.8657 7.95003 18.6657 7.45003C18.4657 7.05003 18.2657 6.65002 17.9657 6.35002ZM17.6657 10.05C17.5657 10.35 17.3657 10.65 17.1657 10.95C16.9657 11.15 16.7657 11.35 16.4657 11.55C15.9657 11.85 15.2657 11.85 14.7657 11.55C14.4657 11.45 14.2657 11.25 14.0657 10.95C13.8657 10.75 13.6657 10.45 13.5657 10.05C13.4657 9.75003 13.3657 9.35003 13.3657 8.95003C13.3657 8.55003 13.4657 8.25002 13.5657 7.85002C13.6657 7.55002 13.8657 7.25003 14.0657 6.95003C14.2657 6.75003 14.4657 6.55002 14.7657 6.35002C15.0657 6.25002 15.3657 6.15003 15.6657 6.15003C15.9657 6.15003 16.2657 6.25002 16.5657 6.35002C16.8657 6.45002 17.0657 6.65003 17.2657 6.95003C17.4657 7.15003 17.6657 7.45002 17.7657 7.85002C17.8657 8.15002 17.9657 8.55003 17.9657 8.95003C17.8657 9.35003 17.7657 9.75003 17.6657 10.05Z" fill="#010101"/>
<path d="M21.0657 8.75C21.0657 8.35 21.1657 8.05 21.1657 7.75C21.2657 7.45 21.3657 7.15 21.5657 6.95C21.7657 6.75 21.9657 6.55 22.2657 6.45C22.5657 6.35 22.8657 6.25 23.2657 6.25H23.4657V5.25H23.2657C22.5657 5.25 21.9657 5.45 21.4657 5.75C21.2657 5.85 21.0657 6.05 20.9657 6.25V5.45H19.9657V12.75H20.9657V8.75H21.0657Z" fill="#010101"/>
<path d="M29.3657 6.25002C29.0657 5.95002 28.6657 5.65002 28.2657 5.45002C27.3657 5.05002 26.3657 5.05002 25.4657 5.45002C25.0657 5.65002 24.6657 5.85002 24.3657 6.25002C24.0657 6.55002 23.7657 6.95002 23.5657 7.45002C23.3657 7.95002 23.2657 8.45002 23.2657 8.95002C23.2657 9.55002 23.3657 10.05 23.5657 10.45C23.7657 10.95 23.9657 11.35 24.3657 11.65C24.6657 11.95 25.0657 12.25 25.4657 12.45C25.8657 12.65 26.3657 12.75 26.8657 12.75C27.3657 12.75 27.8657 12.65 28.2657 12.45C28.6657 12.25 29.0657 12.05 29.3657 11.65C29.6657 11.35 29.9657 10.95 30.1657 10.45C30.3657 9.95002 30.4657 9.45002 30.4657 8.95002C30.4657 8.35002 30.3657 7.85002 30.1657 7.45002C29.9657 7.05002 29.6657 6.65002 29.3657 6.25002ZM29.1657 10.15C29.0657 10.45 28.8657 10.75 28.6657 11.05C28.4657 11.25 28.1657 11.45 27.8657 11.65C27.2657 11.95 26.5657 11.95 25.8657 11.65C25.5657 11.55 25.2657 11.35 25.0657 11.05C24.8657 10.85 24.6657 10.55 24.5657 10.15C24.4657 9.85002 24.3657 9.45002 24.3657 9.05002C24.3657 8.65002 24.4657 8.25002 24.5657 7.95002C24.6657 7.65002 24.8657 7.35002 25.0657 7.05002C25.2657 6.85002 25.5657 6.65002 25.8657 6.45002C26.1657 6.35002 26.4657 6.25002 26.8657 6.25002C27.1657 6.25002 27.5657 6.35002 27.8657 6.45002C28.1657 6.55002 28.4657 6.75002 28.6657 7.05002C28.8657 7.25002 29.0657 7.55002 29.1657 7.95002C29.2657 8.25002 29.3657 8.65002 29.3657 9.05002C29.3657 9.45002 29.3657 9.75002 29.1657 10.15Z" fill="#010101"/>
<path d="M35.7657 2.65C35.5657 2.45 35.3657 2.25 35.0657 2.15C34.4657 1.95 33.8657 1.95 33.2657 2.15C32.9657 2.25 32.7657 2.45 32.5657 2.65C32.3657 2.85 32.1657 3.05 32.0657 3.35C31.9657 3.65 31.8657 3.95 31.8657 4.25V5.35H30.7657V6.35H31.8657V12.55H32.8657V6.35H34.7657V5.35H32.8657V4.25C32.8657 4.05 32.8657 3.95 32.9657 3.75C33.0657 3.55 33.1657 3.45 33.2657 3.35C33.3657 3.25 33.4657 3.15 33.6657 3.05C33.9657 2.95 34.3657 2.95 34.6657 3.05C34.7657 3.15 34.9657 3.25 35.0657 3.35C35.1657 3.45 35.2657 3.55 35.3657 3.75C35.4657 3.85 35.4657 4.05 35.4657 4.25V4.45H36.4657V4.25C36.4657 3.95 36.3657 3.65 36.2657 3.35C36.0657 3.05 35.9657 2.85 35.7657 2.65Z" fill="#010101"/>
<path d="M36.3657 5.34998H35.3657V12.65H36.3657V5.34998Z" fill="#010101"/>
<path d="M39.3657 2.44995L38.3657 2.74995V5.34995H37.1657V6.34995H38.3657V10.45C38.3657 10.75 38.4657 11.0499 38.5657 11.2499C38.6657 11.5499 38.8657 11.75 39.0657 11.95C39.2657 12.15 39.4657 12.25 39.7657 12.45C40.0657 12.55 40.2657 12.6499 40.5657 12.6499H40.7657V11.6499H40.5657C40.2657 11.6499 39.9657 11.5499 39.7657 11.3499C39.5657 11.1499 39.4657 10.8499 39.4657 10.5499V6.44995H40.8657V5.44995H39.4657V2.44995H39.3657Z" fill="#010101"/>
</g>
</svg>
