<svg width="32" height="32" viewBox="0 0 32 32" fill="none" xmlns="http://www.w3.org/2000/svg">
<path d="M15.9999 1.33334C7.89992 1.33334 1.33325 7.89968 1.33325 16C1.33325 24.1003 7.89992 30.6667 15.9999 30.6667C24.0999 30.6667 30.6666 24.1003 30.6666 16C30.6666 7.89968 24.0999 1.33334 15.9999 1.33334ZM15.9999 28C9.37259 28 3.99992 22.6273 3.99992 16C3.99992 9.37268 9.37259 4.00001 15.9999 4.00001C22.6273 4.00001 27.9999 9.37268 27.9999 16C27.9999 22.6273 22.6273 28 15.9999 28Z" fill="#FCFFFD"/>
<path d="M21.428 12.39C20.9073 11.8697 20.063 11.8697 19.5423 12.39L14.8283 17.1043L12.9427 15.2187C12.422 14.698 11.578 14.698 11.057 15.2187C10.5363 15.7393 10.5363 16.5837 11.057 17.1047L13.885 19.9323C14.4057 20.453 15.2503 20.453 15.771 19.9323L21.4277 14.2757C21.9487 13.755 21.9493 12.911 21.428 12.39Z" fill="#FCFFFD"/>
</svg>
